<?xml version="1.0" standalone="no"?>
<!DOCTYPE svg >
<svg version="1.0" xmlns="http://www.w3.org/2000/svg"
 width="1280.000000pt" height="1280.000000pt" viewBox="0 0 1280.000000 1280.000000"
 preserveAspectRatio="xMidYMid meet">
<g transform="translate(0.000000,1280.000000) scale(0.100000,-0.100000)"
fill="lightgrey" stroke="none">
<path d="M3445 10770 c-3 -5 -1 -10 4 -10 6 0 11 5 11 10 0 6 -2 10 -4 10 -3
0 -8 -4 -11 -10z"/>
<path d="M6374 10712 c-15 -23 -22 -61 -28 -142 -7 -84 9 -40 19 56 4 38 12
72 17 75 6 4 9 12 7 18 -3 7 -9 4 -15 -7z"/>
<path d="M4370 10654 c-16 -19 -29 -225 -24 -371 3 -59 -2 -187 -11 -283 -8
-96 -17 -206 -20 -245 -7 -92 -7 -653 0 -780 3 -55 8 -147 11 -205 3 -58 6
-118 7 -135 0 -16 4 -77 8 -135 4 -58 10 -177 13 -265 4 -88 9 -230 12 -315 4
-101 2 -183 -6 -235 -13 -89 -16 -111 -24 -268 -4 -60 -13 -125 -21 -144 -8
-20 -15 -52 -15 -72 0 -20 -5 -42 -12 -49 -16 -16 -56 -15 -74 2 -7 8 -23 12
-34 9 -11 -3 -27 1 -36 8 -13 11 -15 10 -12 -3 1 -8 -8 -24 -21 -35 -46 -37
-4 -56 62 -28 20 8 48 15 62 15 36 0 32 -39 -13 -125 -29 -55 -42 -71 -62 -73
-74 -9 -106 -45 -95 -106 5 -26 0 -39 -27 -74 -49 -62 -66 -70 -157 -77 -94
-7 -142 -26 -196 -80 -27 -28 -35 -44 -35 -73 -1 -57 -75 -172 -101 -156 -7 4
-9 3 -6 -3 4 -6 -14 -46 -41 -88 -33 -56 -56 -82 -79 -91 -17 -8 -40 -25 -51
-39 -35 -44 -59 -24 -27 22 36 51 -8 62 -102 25 -33 -13 -43 -23 -52 -53 -15
-49 -4 -74 51 -126 l45 -41 -45 -28 c-25 -16 -50 -28 -55 -26 -4 1 -6 -2 -3
-7 3 -5 -1 -14 -8 -20 -11 -10 -17 -8 -26 6 -11 17 -11 17 -6 0 3 -10 6 -23 6
-28 0 -16 18 -10 40 13 18 19 24 21 49 11 16 -6 41 -8 56 -5 45 8 25 -21 -25
-37 -44 -14 -130 -92 -130 -118 0 -18 6 -17 39 8 16 12 35 19 42 17 7 -2 -5
-15 -29 -28 -23 -13 -42 -28 -42 -34 0 -6 -3 -21 -6 -33 -8 -29 9 -30 36 -3
18 18 83 28 138 21 6 -1 12 3 12 9 0 13 -121 10 -155 -4 -16 -6 -14 -3 6 16
52 46 67 56 75 50 4 -4 4 -2 1 4 -10 17 68 88 88 80 10 -4 15 -12 11 -22 -4
-12 -1 -14 14 -9 14 5 20 2 20 -9 0 -12 -11 -16 -42 -17 -33 -2 -36 -3 -13 -6
63 -8 75 -13 68 -30 -4 -11 -3 -14 5 -9 7 4 22 0 34 -8 36 -25 42 -18 13 15
-14 18 -24 38 -20 47 3 10 0 12 -10 9 -21 -9 -29 11 -10 29 13 14 18 14 32 2
49 -38 63 -53 63 -65 0 -8 14 -13 40 -14 58 -2 65 -4 63 -15 -1 -5 7 -16 18
-22 18 -12 19 -10 13 15 -11 44 -14 46 -63 39 -41 -5 -50 -3 -69 17 -12 13
-19 27 -15 30 3 4 0 7 -8 7 -39 0 -36 22 7 65 33 34 42 49 40 72 -2 22 -9 29
-30 31 -30 4 -31 1 -14 -45 11 -29 10 -35 -12 -58 -15 -16 -26 -21 -30 -14 -4
5 -24 16 -45 23 -35 12 -56 36 -69 79 -3 10 -15 17 -31 17 -15 0 -41 15 -65
36 -32 29 -40 43 -40 71 0 44 37 83 79 83 l30 0 -6 -50 -6 -50 46 0 c25 0 47
-4 49 -9 5 -16 81 43 83 65 1 11 17 45 37 75 19 30 49 78 67 107 18 28 36 52
40 52 4 0 14 11 21 25 7 14 21 25 31 25 22 0 59 -46 66 -82 6 -32 23 -48 23
-23 0 24 -18 56 -52 91 l-29 31 27 22 c19 15 41 21 74 21 27 0 77 9 112 20 70
22 107 25 157 10 57 -16 62 -33 30 -109 -16 -36 -29 -83 -29 -104 0 -32 5 -40
33 -57 17 -11 34 -20 38 -20 7 0 -5 102 -14 116 -8 13 38 125 56 136 7 4 18 5
26 2 24 -8 110 18 130 40 25 27 99 165 111 205 5 17 5 58 0 93 -9 64 -24 340
-21 368 1 8 4 170 6 360 2 190 6 394 10 453 6 102 7 502 1 577 -2 19 -6 130
-11 245 -4 116 -9 221 -11 235 -2 14 -6 135 -8 270 -3 260 10 466 40 600 9 41
19 100 21 130 2 30 9 65 15 78 9 17 9 25 -1 35 -9 9 -14 9 -20 -2 -5 -8 -7
-19 -5 -26 3 -6 0 -32 -6 -56 -22 -95 -52 -280 -65 -404 -13 -126 -13 -241 0
-550 3 -82 8 -195 10 -250 4 -96 12 -423 16 -626 0 -54 -4 -105 -10 -115 -8
-15 -11 0 -12 66 -1 47 -1 92 -1 100 1 8 -3 60 -8 115 -6 55 -12 154 -15 220
-2 66 -7 152 -9 190 -25 377 -25 731 -1 1010 2 22 6 83 10 135 3 52 10 120 15
150 19 114 30 219 35 345 3 72 7 145 10 162 5 40 -24 63 -45 37z m30 -2595 c0
-16 -4 -29 -10 -29 -5 0 -10 16 -10 36 0 21 4 33 10 29 6 -3 10 -19 10 -36z
m-1070 -2159 c0 -5 -4 -10 -10 -10 -5 0 -10 5 -10 10 0 6 5 10 10 10 6 0 10
-4 10 -10z m-40 -78 c0 -23 -94 -82 -108 -68 -8 8 72 76 91 76 9 0 17 -4 17
-8z"/>
<path d="M6170 10572 c0 -22 -3 -54 -6 -71 -5 -24 -3 -31 10 -31 11 0 16 9 17
30 4 92 3 104 -8 108 -9 2 -13 -9 -13 -36z"/>
<path d="M6330 10491 c0 -5 -9 -13 -20 -16 -13 -4 -20 -15 -20 -31 0 -28 16
-32 24 -6 9 30 -2 -59 -22 -173 -45 -253 -93 -373 -129 -327 -12 15 -12 13 -7
-12 5 -19 2 -31 -7 -36 -7 -5 -16 -35 -20 -67 -4 -32 -13 -94 -19 -138 -6 -44
-13 -123 -15 -175 -2 -52 -8 -131 -14 -176 -5 -44 -15 -187 -21 -318 -10 -206
-10 -240 3 -253 12 -13 16 -9 32 29 20 51 24 160 5 183 -10 12 -10 18 0 29 6
8 10 23 9 33 -2 10 1 29 5 42 6 17 4 26 -6 32 -11 6 -12 22 -5 81 4 40 8 111
7 158 0 110 23 326 41 368 12 28 12 34 -1 42 -8 5 -10 10 -4 10 6 0 16 31 23
70 13 70 30 101 32 58 15 -240 1 -1172 -18 -1248 -6 -22 -7 -21 -13 15 -6 32
-7 23 -9 -41 -1 -68 -4 -84 -22 -100 -20 -18 -21 -18 -35 1 -13 18 -14 16 -14
-16 -3 -482 -5 -503 -49 -498 -9 1 -23 -1 -31 -4 -28 -11 -121 -27 -156 -27
-19 0 -82 -15 -139 -34 l-105 -34 0 33 c0 18 -5 57 -11 86 -6 30 -13 106 -15
169 -5 146 -10 209 -18 217 -3 4 -7 -38 -8 -93 0 -54 -3 -119 -5 -144 -1 -25
-5 -99 -8 -165 -3 -66 -7 -125 -10 -132 -2 -7 -26 -26 -52 -43 -26 -16 -43
-30 -38 -30 6 0 24 9 40 20 52 34 58 28 52 -47 -5 -48 -12 -72 -26 -87 -16
-16 -23 -18 -33 -8 -17 17 -45 15 -56 -4 -8 -15 -12 -15 -41 0 -17 9 -36 14
-40 11 -5 -3 -19 -1 -31 3 -22 8 -21 9 16 40 21 17 53 39 72 48 18 9 31 18 28
21 -3 3 -25 -6 -50 -20 -26 -14 -46 -21 -46 -16 0 5 -5 9 -11 9 -6 0 -9 -7 -6
-15 5 -13 -43 -57 -65 -61 -5 -1 -12 -2 -18 -3 -5 0 -10 -19 -10 -40 0 -23 -5
-41 -12 -44 -21 -6 -11 -136 17 -220 36 -112 40 -163 18 -222 -14 -37 -18 -61
-12 -90 15 -81 -30 -183 -140 -319 -17 -21 -31 -50 -31 -63 0 -13 -4 -22 -9
-19 -13 8 -21 60 -27 171 -3 55 -9 111 -14 125 -14 41 -23 153 -11 146 5 -4
12 2 15 12 10 29 4 152 -6 152 -5 0 -8 -12 -7 -27 4 -49 -1 -107 -8 -100 -6 7
-9 25 -14 87 -1 19 -5 -1 -8 -45 -4 -44 -4 -82 0 -85 8 -7 6 -87 -3 -96 -12
-11 -10 -26 2 -19 6 3 7 -1 4 -9 -4 -10 -1 -16 7 -16 9 -1 8 -4 -3 -11 -20
-11 -24 -59 -7 -76 7 -7 7 -22 0 -49 -6 -22 -12 -86 -15 -144 -2 -58 -7 -112
-11 -120 -3 -8 -25 -24 -48 -36 -40 -19 -42 -23 -45 -70 -1 -27 -12 -68 -22
-91 -25 -54 -25 -64 2 -140 20 -56 21 -63 7 -80 -43 -50 -22 -93 46 -93 58 0
73 7 91 41 8 16 23 29 33 29 26 0 59 40 69 85 9 40 7 172 -3 212 -4 18 2 25
29 38 46 22 72 53 85 100 9 33 8 42 -5 52 -13 9 -2 25 77 102 54 53 97 87 102
82 18 -18 26 -87 21 -183 -6 -120 11 -190 61 -263 61 -89 64 -130 13 -211 -37
-58 -68 -133 -68 -164 0 -19 -7 -30 -25 -38 -46 -21 -107 -185 -91 -246 3 -12
28 -45 56 -74 l52 -52 -23 -37 c-50 -87 -69 -86 -208 2 -97 61 -144 75 -193
54 -41 -16 -57 -36 -58 -71 l0 -28 -87 -1 c-49 0 -186 -1 -305 -2 -119 -1
-219 -5 -223 -9 -14 -14 8 -50 47 -76 112 -75 142 -91 149 -80 5 8 -16 26 -57
51 -52 31 -65 43 -62 60 3 20 9 22 86 23 47 1 82 -3 82 -9 0 -5 6 -5 13 2 9 7
74 10 200 8 l185 -2 89 -72 c48 -39 97 -82 108 -95 12 -12 31 -30 44 -39 20
-12 22 -18 13 -35 -6 -11 -14 -49 -18 -84 -5 -48 -18 -85 -50 -145 -116 -215
-169 -340 -104 -244 16 24 30 50 30 57 0 6 4 12 9 12 5 0 13 10 17 23 4 12 21
40 38 62 17 22 40 57 51 79 13 26 41 53 87 83 36 24 82 60 101 79 l34 35 43
-36 c25 -21 50 -44 56 -53 10 -14 30 -17 102 -16 81 1 95 4 145 32 33 19 63
29 73 25 9 -3 36 -37 60 -74 24 -38 48 -69 52 -69 13 0 62 -72 55 -82 -3 -5
-15 -1 -27 10 -28 26 -117 82 -130 82 -6 0 2 -9 18 -19 28 -19 156 -146 156
-155 0 -5 -63 -82 -105 -129 -24 -27 -33 -71 -17 -81 4 -2 20 17 35 44 32 57
114 121 166 130 l36 6 -3 123 c-1 74 -8 141 -17 166 -32 95 -19 184 46 302 21
40 39 83 39 95 0 13 -16 62 -36 108 -46 110 -55 140 -48 164 4 11 2 16 -4 12
-7 -4 -13 12 -17 41 -3 27 -10 66 -15 88 -14 60 -25 151 -33 285 -3 47 -8 92
-11 100 -6 20 -17 95 -22 149 -4 51 3 67 70 148 44 53 55 62 81 60 25 -2 32 4
46 33 60 125 92 215 104 288 6 37 12 46 41 60 28 13 39 14 54 4 16 -10 18 -9
14 3 -4 8 -1 15 5 15 5 0 10 -12 10 -27 -1 -71 20 -182 44 -228 36 -71 72
-152 113 -258 47 -123 52 -129 126 -164 49 -24 67 -39 83 -69 27 -53 122 -191
166 -242 28 -32 43 -42 67 -42 23 0 32 -5 37 -22 4 -13 15 -41 25 -64 12 -27
17 -54 13 -80 -5 -39 -34 -86 -50 -83 -4 1 -16 -1 -25 -5 -20 -9 -99 37 -131
74 -36 42 -108 150 -100 150 4 0 0 5 -9 11 -10 5 -18 14 -18 20 0 5 -9 19 -20
31 -22 24 -26 38 -10 38 5 0 7 7 4 15 -4 8 -13 15 -21 15 -11 0 -13 -7 -9 -25
9 -36 54 -133 65 -139 5 -3 12 -17 15 -32 4 -14 20 -46 37 -72 17 -26 62 -96
101 -157 39 -60 84 -130 99 -154 47 -72 32 -135 -36 -158 -42 -14 -71 -73 -56
-115 8 -22 8 -34 1 -36 -21 -7 30 -60 65 -66 19 -4 35 -10 35 -15 0 -4 14 -23
30 -41 17 -18 30 -37 30 -42 0 -9 206 -148 219 -148 13 0 41 36 41 53 0 9 14
32 30 50 17 19 30 41 30 50 0 8 7 21 17 28 9 8 27 38 40 68 14 30 36 68 49 84
70 83 95 255 64 427 -7 36 -15 83 -17 105 -3 22 -9 45 -13 50 -4 6 -11 42 -14
80 -23 243 -46 344 -132 575 -9 25 -25 74 -34 110 -16 57 -18 60 -19 30 l-2
-35 -15 25 c-11 18 -13 19 -9 5 27 -86 38 -164 39 -290 1 -150 -12 -227 -46
-270 -23 -29 -35 -31 -65 -7 -28 21 -73 173 -73 247 0 28 -9 77 -20 108 -11
32 -23 83 -25 115 -3 31 -10 71 -15 88 -6 17 -15 62 -21 100 -17 119 -26 167
-42 234 -20 86 -32 178 -20 165 47 -52 103 -152 113 -205 4 -19 17 -69 28
-111 11 -42 24 -113 27 -158 4 -44 11 -79 15 -76 4 2 4 25 0 50 -12 80 -4 137
22 156 22 17 23 17 35 -9 l12 -27 -6 31 c-4 24 0 35 16 46 18 13 22 29 27 114
5 81 2 115 -14 184 -53 221 -73 317 -87 420 -1 8 -9 42 -18 75 -10 38 -16 103
-16 176 0 121 -7 173 -22 163 -5 -3 -9 -17 -9 -32 0 -22 2 -24 11 -12 7 11 8
-8 4 -65 -4 -44 -8 -118 -10 -164 -2 -46 -6 -99 -10 -118 -4 -21 -2 -40 5 -48
8 -9 12 -84 13 -224 2 -182 0 -212 -14 -226 -15 -15 -19 -14 -48 17 -43 45
-94 143 -103 198 -22 131 -22 128 6 161 31 36 32 55 6 89 -15 19 -20 41 -20
90 0 68 -8 110 -19 110 -4 0 -4 -28 0 -62 3 -35 3 -66 -1 -71 -3 -4 -19 20
-35 53 -16 33 -32 60 -36 60 -17 0 -68 58 -89 100 -13 25 -31 56 -41 69 -24
30 -24 36 1 61 l20 20 -20 0 c-11 0 -20 5 -20 10 0 6 5 10 11 10 6 0 9 6 6 14
-15 38 69 61 105 29 18 -16 18 -16 12 0 -3 9 -10 17 -15 17 -21 0 -6 22 25 37
38 18 54 42 58 92 2 23 -2 35 -12 38 -12 4 -13 3 -1 -5 20 -14 4 -32 -27 -32
-26 1 -26 1 -7 16 19 15 19 15 -9 8 -20 -5 -27 -4 -22 4 5 8 2 10 -8 6 -9 -3
-16 -2 -17 2 -16 173 -23 210 -46 255 -47 95 -121 135 -230 127 l-48 -3 3 64
c3 58 1 66 -24 92 -15 16 -34 29 -41 29 -15 0 -53 -57 -53 -78 0 -31 33 -81
60 -92 34 -14 42 -33 39 -94 -2 -34 2 -51 18 -68 18 -20 19 -27 9 -57 -16 -46
-32 -49 -53 -11 -10 18 -27 44 -38 59 -38 49 -44 76 -51 246 -5 94 -10 159
-12 145 -2 -14 -9 -28 -16 -32 -8 -6 -8 -8 2 -8 15 0 17 -217 2 -240 -8 -12
-10 -9 -10 11 0 16 -9 32 -21 40 -25 17 -36 66 -44 194 -3 55 -13 152 -21 215
-16 119 -27 797 -13 806 4 2 6 48 4 101 -2 78 5 143 35 313 46 259 52 300 45
300 -3 0 -5 -4 -5 -9z m-168 -2139 c22 -37 26 -64 27 -211 0 -66 -12 -106 -30
-95 -5 3 -17 0 -25 -7 -8 -6 -16 -10 -19 -8 -7 8 -17 358 -10 369 9 15 29 -2
57 -48z m123 -145 c4 5 6 4 3 -2 -3 -5 -8 -18 -12 -29 -6 -18 -7 -18 -26 -1
-11 10 -20 27 -20 37 0 17 2 17 23 3 13 -8 27 -12 32 -8z m-145 -217 c0 -5 -4
-10 -10 -10 -5 0 -10 5 -10 10 0 6 5 10 10 10 6 0 10 -4 10 -10z m-72 -32 c-2
-25 -8 -33 -22 -33 -27 0 -34 51 -9 58 33 9 34 7 31 -25z m-58 -16 c0 -33 -5
-42 -41 -68 -76 -55 -84 -65 -27 -34 52 29 59 30 65 15 11 -29 -11 -49 -66
-62 -29 -6 -60 -18 -69 -26 -9 -7 -39 -24 -65 -37 -26 -12 -46 -24 -43 -27 2
-2 18 3 35 11 16 9 48 16 70 16 22 0 46 7 55 15 25 26 41 16 16 -10 -13 -14
-20 -25 -16 -25 5 0 -4 -16 -18 -35 -18 -23 -21 -33 -11 -29 9 4 25 24 35 45
19 36 56 67 67 55 3 -3 7 -42 9 -87 l3 -82 -47 -46 c-26 -25 -37 -37 -25 -27
28 24 39 16 21 -15 -18 -30 -80 -88 -95 -89 -19 0 -16 11 15 44 15 17 18 24 7
16 -30 -22 -125 -124 -125 -134 0 -5 17 11 38 34 23 27 43 41 50 36 20 -12 14
-26 -35 -75 -27 -27 -65 -67 -87 -90 -21 -23 -40 -40 -43 -37 -19 18 -56 227
-54 306 0 62 4 78 21 92 11 9 20 24 20 34 0 9 11 32 26 51 30 40 10 46 -26 8
-13 -14 -27 -22 -32 -17 -4 4 -11 58 -14 119 l-6 111 63 20 c35 11 102 27 149
36 47 9 94 18 105 20 11 2 32 4 48 5 25 1 27 -2 27 -37z m50 -52 c0 -5 -5 -10
-11 -10 -5 0 -7 5 -4 10 3 6 8 10 11 10 2 0 4 -4 4 -10z m-707 -250 c3 -11 1
-20 -4 -20 -5 0 -9 9 -9 20 0 11 2 20 4 20 2 0 6 -9 9 -20z m643 -117 c-10
-10 -19 5 -10 18 6 11 8 11 12 0 2 -7 1 -15 -2 -18z m899 -10 c26 -38 33 -87
15 -98 -6 -3 -18 7 -28 24 -9 17 -21 31 -26 31 -6 0 -20 10 -33 22 -21 20 -22
23 -6 40 25 28 50 22 78 -19z m59 5 c19 -27 22 -82 4 -76 -6 2 -13 17 -15 34
-2 16 -8 33 -14 39 -5 5 -9 13 -9 17 0 16 19 8 34 -14z m-954 -131 c0 -51 -5
-88 -12 -95 -20 -20 -27 -14 -23 21 12 114 19 157 26 157 5 0 9 -37 9 -83z
m806 11 c20 -40 22 -48 9 -55 -12 -7 -12 -16 0 -68 7 -33 16 -67 20 -76 7 -19
-20 -33 -40 -22 -38 23 -95 78 -95 93 0 10 -7 34 -15 54 -16 37 -15 37 20 81
47 57 69 55 101 -7z m-888 -311 c-13 -34 -21 -66 -20 -71 2 -5 -4 -26 -12 -47
-9 -22 -11 -39 -6 -39 5 0 12 11 16 25 3 13 12 30 20 36 13 10 15 -10 15 -147
0 -87 4 -193 8 -234 5 -45 5 -101 -1 -140 -6 -36 -11 -72 -12 -80 -1 -9 -6
-22 -11 -30 -11 -17 -25 -54 -59 -155 -32 -94 -81 -216 -116 -291 -28 -60 -90
-134 -112 -134 -15 0 -2 103 17 141 9 16 13 39 9 53 -6 25 19 48 78 74 43 18
61 54 61 130 1 66 -3 81 -59 209 -8 17 -19 66 -24 107 -5 42 -16 86 -24 98 -7
13 -16 64 -20 113 -3 50 -9 113 -12 142 -6 50 -6 52 16 46 l22 -6 -7 124 -7
124 46 55 c26 30 68 80 95 110 27 30 63 73 82 94 l34 39 3 -142 c2 -127 0
-149 -20 -204z m982 289 c0 -3 -4 -8 -10 -11 -5 -3 -10 -1 -10 4 0 6 5 11 10
11 6 0 10 -2 10 -4z m-260 -62 c0 -25 72 -138 79 -125 5 7 15 3 30 -13 25 -26
99 -45 110 -28 15 25 44 16 63 -18 31 -55 41 -60 19 -9 -13 29 -19 58 -15 75
4 22 -1 36 -21 57 -15 16 -25 31 -22 33 14 14 97 -103 97 -137 0 -18 -2 -19
-15 -9 -23 19 -19 -9 5 -35 14 -15 21 -41 25 -105 4 -47 13 -105 20 -130 16
-51 55 -375 60 -495 3 -82 -13 -204 -32 -240 -6 -11 -14 -39 -18 -62 -5 -35
-11 -43 -28 -43 -19 0 -55 35 -81 78 -4 7 0 24 9 38 31 48 5 108 -66 152 -34
21 -37 26 -42 84 -7 82 -47 203 -67 203 -8 0 -17 -11 -20 -25 -6 -21 -14 -10
-58 80 -61 126 -122 270 -122 287 0 9 12 11 44 7 66 -9 96 14 96 76 0 46 -3
53 -64 135 -18 24 -31 122 -22 159 7 28 36 36 36 10z m-681 -208 c-9 -8 -10
-5 -5 14 3 14 7 36 8 50 1 14 3 8 5 -14 3 -22 -1 -43 -8 -50z m30 -88 c2 -64
-19 -181 -34 -196 -3 -3 -5 18 -5 46 0 40 4 52 15 52 8 0 15 4 15 9 0 5 -7 11
-15 15 -18 6 -21 89 -5 131 16 42 27 21 29 -57z m-676 -61 c20 -51 37 -99 37
-107 0 -23 -169 -195 -203 -206 -10 -3 -29 2 -44 11 -36 24 -27 55 51 171 36
53 72 119 81 148 9 28 18 57 20 64 9 27 22 8 58 -81z m1181 52 c14 -17 27 -40
27 -52 1 -12 3 -38 4 -57 1 -19 28 -105 59 -190 31 -85 59 -175 62 -200 l7
-45 -26 24 c-14 13 -38 57 -53 100 -15 42 -38 93 -51 113 -13 21 -23 42 -23
48 0 6 -11 33 -25 59 -13 27 -24 64 -24 83 0 18 -4 49 -10 68 -26 82 3 109 53
49z m-510 -296 c6 -74 -3 -148 -16 -128 -6 10 -13 130 -10 178 4 56 20 25 26
-50z m-274 -301 c0 -10 6 -26 13 -37 40 -59 53 -181 27 -251 -13 -33 -90 -81
-101 -62 -13 19 -11 35 15 128 23 85 24 98 11 177 -5 29 -4 48 5 58 15 18 30
11 30 -13z m247 -103 c2 -18 6 -77 9 -129 3 -52 9 -149 14 -215 12 -169 14
-234 7 -242 -17 -16 -56 -10 -78 13 -26 28 -64 31 -112 10 -74 -34 -118 -95
-176 -244 -20 -52 -41 -97 -47 -99 -21 -7 -13 50 11 79 18 21 22 34 16 46 -4
9 -11 38 -14 65 -7 47 -7 47 23 47 32 0 35 6 31 67 -2 24 6 41 31 68 52 57 97
151 173 360 46 128 87 216 98 212 6 -2 12 -19 14 -38z m1231 -451 c5 -7 13
-27 16 -44 7 -30 6 -31 -24 -26 -23 3 -30 9 -30 27 0 48 17 68 38 43z m-1618
-28 c24 -24 18 -40 -14 -40 -12 0 -27 -5 -34 -12 -19 -19 -21 -6 -5 35 17 42
25 45 53 17z m-107 -101 c-11 -42 -37 -54 -27 -12 7 29 24 56 31 49 2 -2 0
-19 -4 -37z m95 -51 c6 -7 12 -44 14 -82 3 -68 3 -69 -24 -73 -17 -2 -36 5
-53 20 -27 23 -27 24 -11 55 9 17 16 37 16 43 0 14 29 49 40 49 4 0 12 -6 18
-12z m-59 -161 c15 -18 26 -77 14 -77 -24 0 -53 33 -53 61 0 31 19 39 39 16z
m-311 -76 c97 -11 108 -22 85 -84 -10 -26 -27 -59 -39 -75 l-22 -27 -36 19
c-20 11 -36 24 -36 29 0 6 -28 36 -61 68 -45 42 -60 62 -55 74 5 15 14 16 49
11 23 -4 75 -11 115 -15z m1992 -41 c0 -5 -4 -10 -10 -10 -5 0 -10 5 -10 10 0
6 5 10 10 10 6 0 10 -4 10 -10z m-1654 -27 c-10 -10 -19 5 -10 18 6 11 8 11
12 0 2 -7 1 -15 -2 -18z m-191 -167 c10 -7 16 -20 12 -29 -7 -18 -123 -117
-138 -117 -5 0 10 36 33 80 44 82 58 92 93 66z"/>
<path d="M5735 7720 c-3 -5 -2 -10 4 -10 5 0 13 5 16 10 3 6 2 10 -4 10 -5 0
-13 -4 -16 -10z"/>
<path d="M5822 6874 c-22 -23 -31 -41 -27 -53 7 -24 50 -16 70 13 14 19 14 22
-1 33 -9 7 -14 19 -11 28 8 20 8 19 -31 -21z"/>
<path d="M5866 6563 c-6 -14 -5 -15 5 -6 7 7 10 15 7 18 -3 3 -9 -2 -12 -12z"/>
<path d="M5780 6536 c0 -8 5 -18 10 -21 6 -3 10 3 10 14 0 12 -4 21 -10 21 -5
0 -10 -6 -10 -14z"/>
<path d="M5867 6363 c-12 -11 -8 -23 8 -23 8 0 15 7 15 15 0 16 -12 20 -23 8z"/>
<path d="M6920 6923 c0 -4 5 -15 10 -23 8 -13 10 -13 10 2 0 9 -4 20 -10 23
-5 3 -10 3 -10 -2z"/>
<path d="M6490 6884 c6 -14 10 -39 10 -55 0 -18 4 -28 10 -24 14 8 13 46 -2
78 -16 34 -31 35 -18 1z"/>
<path d="M2730 10345 c0 -8 7 -15 15 -15 8 0 15 7 15 15 0 8 -7 15 -15 15 -8
0 -15 -7 -15 -15z"/>
<path d="M5670 10294 c0 -8 5 -12 10 -9 6 4 8 11 5 16 -9 14 -15 11 -15 -7z"/>
<path d="M6239 10288 c0 -2 -2 -19 -5 -38 -4 -30 -2 -33 10 -20 23 25 30 60
12 60 -9 0 -16 -1 -17 -2z"/>
<path d="M6210 10195 c0 -8 4 -15 9 -15 5 0 11 7 15 15 3 9 0 15 -9 15 -8 0
-15 -7 -15 -15z"/>
<path d="M6168 10119 c-9 -23 3 -70 16 -66 11 4 47 69 40 76 -1 2 -11 -4 -20
-14 -17 -17 -18 -17 -24 1 -5 14 -8 15 -12 3z"/>
<path d="M4091 10087 c-14 -17 3 -41 23 -34 9 4 16 13 16 21 0 19 -26 28 -39
13z"/>
<path d="M6188 10014 c-5 -4 -8 -16 -8 -28 0 -14 3 -17 11 -9 6 6 9 19 7 28
-1 9 -6 13 -10 9z"/>
<path d="M6377 9825 c-3 -22 -2 -44 3 -49 14 -14 20 14 12 54 l-8 35 -7 -40z"/>
<path d="M5581 9304 c0 -11 3 -14 6 -6 3 7 2 16 -1 19 -3 4 -6 -2 -5 -13z"/>
<path d="M5580 8780 c-1 -8 -4 -31 -6 -50 -3 -28 -1 -31 7 -17 6 9 8 32 6 50
-2 17 -5 25 -7 17z"/>
<path d="M5582 8578 c-1 -14 -5 -35 -8 -45 -5 -14 -4 -15 5 -7 7 7 11 26 8 45
-3 28 -4 29 -5 7z"/>
<path d="M6092 8570 c0 -14 2 -19 5 -12 2 6 2 18 0 25 -3 6 -5 1 -5 -13z"/>
<path d="M6965 8141 c-6 -11 9 -23 19 -14 9 9 7 23 -3 23 -6 0 -12 -4 -16 -9z"/>
<path d="M4930 7689 c0 -5 5 -7 10 -4 6 3 10 8 10 11 0 2 -4 4 -10 4 -5 0 -10
-5 -10 -11z"/>
<path d="M4930 7660 c0 -5 5 -10 10 -10 6 0 10 5 10 10 0 6 -4 10 -10 10 -5 0
-10 -4 -10 -10z"/>
<path d="M4942 7590 c0 -19 2 -27 5 -17 2 9 2 25 0 35 -3 9 -5 1 -5 -18z"/>
<path d="M7311 6719 c5 -28 11 -54 14 -57 8 -8 -6 92 -15 101 -4 5 -4 -15 1
-44z"/>
<path d="M7270 6706 c0 -8 4 -17 9 -20 5 -4 7 3 4 14 -6 23 -13 26 -13 6z"/>
<path d="M6365 6660 c3 -5 8 -10 11 -10 2 0 4 5 4 10 0 6 -5 10 -11 10 -5 0
-7 -4 -4 -10z"/>
<path d="M5304 6532 c-9 -23 -8 -29 2 -29 8 0 14 6 14 13 0 7 3 19 6 28 3 9 2
16 -3 16 -5 0 -13 -13 -19 -28z"/>
<path d="M5250 6429 c0 -5 5 -7 10 -4 6 3 10 8 10 11 0 2 -4 4 -10 4 -5 0 -10
-5 -10 -11z"/>
<path d="M6040 6350 c-6 -11 -7 -20 -2 -20 6 0 12 9 15 20 3 11 3 20 1 20 -2
0 -8 -9 -14 -20z"/>
<path d="M3634 6275 c-4 -8 -10 -12 -15 -9 -5 3 -9 0 -9 -5 0 -18 19 -12 30 9
6 11 8 20 5 20 -3 0 -8 -7 -11 -15z"/>
<path d="M6607 6273 c-2 -5 -1 -17 3 -27 6 -19 7 -19 12 2 6 21 -6 40 -15 25z"/>
<path d="M4055 6168 c-2 -7 -4 -24 -5 -38 -2 -80 -1 -99 5 -140 4 -28 2 -66
-7 -100 -16 -68 -13 -140 7 -140 17 0 38 -36 30 -50 -10 -17 -44 -11 -75 12
-23 17 -30 30 -30 56 0 28 -3 33 -16 28 -10 -4 -25 1 -35 10 -11 10 -19 12
-19 6 0 -7 5 -12 10 -12 6 0 10 -5 10 -11 0 -21 -34 -3 -41 21 -6 21 -7 22 -8
4 -1 -11 5 -29 13 -39 12 -17 18 -18 40 -7 23 10 26 9 26 -8 0 -21 39 -64 83
-93 15 -9 28 -25 28 -35 1 -9 4 -3 8 13 5 23 12 31 34 33 15 2 27 9 27 16 0 7
-21 36 -46 66 -44 51 -46 56 -38 94 5 23 9 86 9 141 0 55 4 108 9 117 4 9 8
22 10 30 1 7 5 19 9 26 6 8 1 12 -13 12 -11 0 -23 -6 -25 -12z"/>
<path d="M5252 6113 c-18 -67 -42 -91 -78 -74 -33 15 -47 6 -33 -20 8 -16 19
-19 51 -17 58 4 80 36 76 109 l-3 54 -13 -52z"/>
<path d="M3835 6109 c4 -10 2 -20 -4 -24 -19 -11 -12 -50 14 -85 31 -41 33
-30 4 17 -19 30 -20 38 -8 59 10 19 10 27 0 37 -10 9 -11 9 -6 -4z"/>
<path d="M3597 6062 c-10 -10 -17 -22 -17 -27 0 -5 9 1 21 14 12 12 19 24 17
27 -3 2 -12 -4 -21 -14z"/>
<path d="M3510 6015 c0 -9 5 -15 11 -13 6 2 11 8 11 13 0 5 -5 11 -11 13 -6 2
-11 -4 -11 -13z"/>
<path d="M3550 5970 c0 -5 5 -10 10 -10 6 0 10 5 10 10 0 6 -4 10 -10 10 -5 0
-10 -4 -10 -10z"/>
<path d="M3712 5955 c-16 -35 -15 -41 8 -42 11 -1 20 2 20 8 0 5 -5 9 -10 9
-6 0 -8 11 -4 25 8 32 0 32 -14 0z"/>
<path d="M3881 5914 c0 -11 3 -14 6 -6 3 7 2 16 -1 19 -3 4 -6 -2 -5 -13z"/>
<path d="M3687 5879 c-3 -11 -19 -25 -36 -32 -33 -12 -41 -27 -16 -27 19 0 65
47 65 66 0 21 -7 17 -13 -7z"/>
<path d="M3980 5891 c0 -6 5 -13 10 -16 6 -3 10 1 10 9 0 9 -4 16 -10 16 -5 0
-10 -4 -10 -9z"/>
<path d="M3165 5830 c-2 -4 7 -7 20 -7 33 0 40 12 9 13 -13 1 -26 -2 -29 -6z"/>
<path d="M3490 5670 c0 -5 7 -10 16 -10 8 0 12 5 9 10 -3 6 -10 10 -16 10 -5
0 -9 -4 -9 -10z"/>
<path d="M2771 5648 c-14 -23 -14 -23 8 -4 22 20 25 26 13 26 -4 0 -13 -10
-21 -22z"/>
<path d="M2608 5613 c7 -3 16 -2 19 1 4 3 -2 6 -13 5 -11 0 -14 -3 -6 -6z"/>
<path d="M3530 5611 c0 -5 7 -11 15 -15 8 -3 15 -1 15 3 0 5 -7 11 -15 15 -8
3 -15 1 -15 -3z"/>
<path d="M3001 5589 c-13 -11 -22 -21 -20 -23 2 -3 15 4 28 15 13 11 22 21 20
23 -2 3 -15 -4 -28 -15z"/>
<path d="M3450 5602 c0 -5 7 -15 15 -22 8 -7 15 -8 15 -2 0 5 -7 15 -15 22 -8
7 -15 8 -15 2z"/>
<path d="M6280 5600 c0 -5 5 -10 11 -10 5 0 7 5 4 10 -3 6 -8 10 -11 10 -2 0
-4 -4 -4 -10z"/>
<path d="M2940 5580 c0 -6 7 -10 15 -10 8 0 15 2 15 4 0 2 -7 6 -15 10 -8 3
-15 1 -15 -4z"/>
<path d="M3470 5548 c0 -9 5 -20 10 -23 13 -8 13 5 0 25 -8 13 -10 13 -10 -2z"/>
<path d="M6950 5465 c0 -8 5 -15 10 -15 6 0 10 7 10 15 0 8 -4 15 -10 15 -5 0
-10 -7 -10 -15z"/>
<path d="M4444 5405 c11 -8 25 -15 30 -15 6 0 2 7 -8 15 -11 8 -25 15 -30 15
-6 0 -2 -7 8 -15z"/>
<path d="M3110 5349 c0 -5 5 -7 10 -4 6 3 10 8 10 11 0 2 -4 4 -10 4 -5 0 -10
-5 -10 -11z"/>
<path d="M6660 5291 c0 -5 5 -13 10 -16 6 -3 10 -2 10 4 0 5 -4 13 -10 16 -5
3 -10 2 -10 -4z"/>
<path d="M3200 5250 c0 -5 5 -10 10 -10 6 0 10 5 10 10 0 6 -4 10 -10 10 -5 0
-10 -4 -10 -10z"/>
<path d="M4670 5210 c0 -5 5 -10 11 -10 5 0 7 5 4 10 -3 6 -8 10 -11 10 -2 0
-4 -4 -4 -10z"/>
<path d="M6385 5190 c-13 -6 -15 -9 -5 -9 8 0 22 4 30 9 18 12 2 12 -25 0z"/>
<path d="M6565 5130 c4 -6 11 -8 16 -5 14 9 11 15 -7 15 -8 0 -12 -5 -9 -10z"/>
<path d="M6395 5109 c6 -32 11 -33 54 -21 21 7 48 12 60 12 11 0 21 4 21 9 0
14 -35 19 -54 9 -11 -6 -28 -6 -48 1 -39 14 -38 15 -33 -10z"/>
<path d="M6866 5099 c-27 -21 -86 -25 -103 -8 -6 6 -17 9 -25 7 -20 -7 46 -38
82 -38 29 0 38 -9 23 -24 -5 -4 -8 -11 -9 -14 0 -4 -4 -14 -8 -23 -8 -18 40
-79 62 -79 7 0 11 -4 7 -9 -11 -18 15 -22 42 -7 35 19 73 52 73 62 0 4 7 15
16 25 13 14 13 24 4 58 -12 47 -26 56 -93 63 -37 4 -53 1 -71 -13z"/>
<path d="M6633 5102 c-17 -2 -23 -10 -23 -29 l0 -26 26 28 c28 31 28 32 -3 27z"/>
<path d="M7446 5091 c-4 -5 -2 -12 3 -15 5 -4 12 -2 15 3 4 5 2 12 -3 15 -5 4
-12 2 -15 -3z"/>
<path d="M6677 5022 c-24 -5 -11 -22 18 -22 13 0 31 -7 39 -16 9 -8 16 -11 16
-6 0 21 -47 50 -73 44z"/>
<path d="M5743 5003 c9 -2 25 -2 35 0 9 3 1 5 -18 5 -19 0 -27 -2 -17 -5z"/>
<path d="M6480 4991 c0 -5 -18 -11 -39 -15 -56 -9 -60 -24 -6 -22 26 0 47 6
50 14 2 7 15 17 27 22 22 8 22 9 -4 9 -16 1 -28 -3 -28 -8z"/>
<path d="M6760 4959 c0 -5 5 -7 10 -4 6 3 10 8 10 11 0 2 -4 4 -10 4 -5 0 -10
-5 -10 -11z"/>
<path d="M6485 4932 c-4 -10 0 -12 11 -8 8 3 20 6 25 6 5 0 9 4 9 9 0 15 -39
8 -45 -7z"/>
<path d="M4955 4910 c-3 -5 -2 -10 4 -10 5 0 13 5 16 10 3 6 2 10 -4 10 -5 0
-13 -4 -16 -10z"/>
<path d="M6420 4899 c-12 -22 -7 -49 10 -49 5 0 9 16 7 35 -1 19 -3 35 -4 35
-1 0 -7 -9 -13 -21z"/>
<path d="M6240 4834 c-50 -28 -70 -44 -53 -44 6 0 8 -12 5 -27 -2 -16 -1 -24
4 -20 4 4 8 20 9 35 0 22 8 31 48 49 26 13 47 25 47 28 0 9 -14 4 -60 -21z"/>
<path d="M6845 4794 c-27 -14 -61 -32 -75 -39 -14 -7 -40 -39 -58 -72 -46 -79
-111 -165 -124 -161 -6 2 -17 24 -25 48 -8 25 -19 49 -24 54 -5 6 -9 22 -9 37
0 15 -4 30 -9 34 -5 3 -15 30 -21 60 -6 30 -16 55 -21 55 -6 0 -7 -5 -4 -11 4
-5 -3 -18 -14 -28 -27 -23 -26 -29 2 -27 21 1 22 -3 22 -66 0 -40 5 -72 13
-79 6 -7 12 -26 12 -41 0 -16 6 -31 14 -34 25 -9 13 -45 -23 -73 -19 -14 -62
-54 -96 -88 -34 -35 -66 -63 -73 -63 -7 0 -12 -7 -12 -15 0 -40 -42 -96 -93
-125 -28 -17 -81 -60 -117 -96 l-65 -67 45 28 c25 15 58 43 73 62 34 40 147
119 164 115 7 -2 10 3 7 11 -9 25 15 65 73 120 132 125 157 147 164 147 4 0
17 -16 29 -35 22 -35 43 -44 56 -24 4 7 -1 16 -10 21 -9 5 -22 21 -30 36 -14
27 -13 29 25 67 21 21 39 43 39 49 0 11 83 100 139 149 37 31 67 37 56 10 -14
-33 -17 -63 -9 -80 5 -13 9 -3 15 35 4 29 15 62 24 72 15 17 14 41 -3 39 -4 0
-29 -11 -57 -25z"/>
<path d="M7181 4613 c-5 -11 -35 -32 -66 -48 -31 -15 -62 -33 -68 -40 -15 -13
-83 -46 -94 -44 -21 4 -43 -2 -43 -11 0 -5 7 -7 15 -4 9 4 15 0 15 -9 0 -8 -5
-17 -12 -19 -14 -5 -22 -48 -9 -48 6 0 12 4 15 9 3 4 24 11 46 15 25 4 51 18
71 37 18 17 37 28 46 25 8 -3 25 1 38 10 13 8 42 17 66 19 23 3 43 6 45 8 2 1
-3 15 -11 30 -7 15 -15 39 -17 54 -4 32 -23 41 -37 16z"/>
<path d="M6830 4449 c0 -22 35 -27 43 -6 3 6 6 3 7 -8 1 -19 1 -19 11 -2 13
23 7 29 -31 32 -24 2 -30 -1 -30 -16z"/>
<path d="M7680 4419 c0 -25 17 -59 30 -59 14 0 12 42 -4 63 -17 23 -26 22 -26
-4z"/>
<path d="M6710 4420 c0 -5 5 -10 11 -10 5 0 7 5 4 10 -3 6 -8 10 -11 10 -2 0
-4 -4 -4 -10z"/>
<path d="M7835 4360 c4 -6 11 -8 16 -5 14 9 11 15 -7 15 -8 0 -12 -5 -9 -10z"/>
<path d="M6304 4317 c-21 -23 -28 -32 -14 -21 14 12 30 20 36 17 10 -3 28 36
20 44 -1 1 -20 -16 -42 -40z"/>
<path d="M6229 4243 l-24 -28 28 24 c25 23 32 31 24 31 -2 0 -14 -12 -28 -27z"/>
<path d="M6226 4036 c-26 -14 -53 -30 -60 -36 -6 -7 12 0 41 14 29 14 59 26
68 26 8 0 15 5 15 10 0 14 -9 12 -64 -14z"/>
<path d="M6119 3969 l-24 -20 28 17 c15 9 27 18 27 20 0 8 -8 4 -31 -17z"/>
<path d="M5917 3944 c-4 -4 -7 -20 -7 -36 0 -17 -8 -33 -20 -40 -11 -7 -20
-16 -20 -21 0 -16 49 29 61 56 12 27 1 56 -14 41z"/>
<path d="M6020 3906 c-36 -23 -72 -51 -80 -62 -12 -15 -9 -14 15 4 17 12 54
38 83 57 28 19 52 37 52 40 0 7 0 8 -70 -39z"/>
<path d="M6802 3757 c-26 -27 -30 -77 -6 -77 15 0 44 55 44 85 0 21 -13 19
-38 -8z"/>
<path d="M5600 3708 l-45 -33 33 -3 c59 -6 133 58 77 66 -11 1 -40 -12 -65
-30z"/>
<path d="M4515 3703 c-100 -123 -92 -106 -100 -220 -4 -57 -5 -106 -2 -109 7
-7 107 62 125 87 21 30 25 259 5 259 -7 0 -20 -8 -28 -17z"/>
<path d="M6550 3705 c-14 -16 -5 -35 16 -35 15 0 20 35 5 44 -5 3 -14 -1 -21
-9z"/>
<path d="M4894 3635 c-9 -23 3 -45 25 -45 25 0 34 14 26 40 -7 23 -43 27 -51
5z"/>
<path d="M5703 3574 c-35 -35 -39 -44 -24 -44 11 0 66 69 60 74 -2 2 -19 -12
-36 -30z"/>
<path d="M3826 3406 c-10 -17 -22 -23 -35 -19 -13 3 -29 -4 -47 -22 -14 -14
-32 -24 -39 -21 -7 2 -17 0 -22 -5 -5 -5 -20 -2 -37 6 -43 22 -56 19 -56 -14
0 -17 4 -32 10 -36 5 -3 7 -11 4 -18 -2 -7 14 -31 36 -54 22 -23 40 -44 40
-47 0 -8 -44 0 -67 12 -31 17 -50 15 -58 -5 -4 -13 6 -28 37 -55 24 -20 50
-44 60 -52 9 -8 27 -17 40 -21 12 -4 28 -11 34 -16 11 -9 46 -5 64 6 5 3 -6
21 -26 39 -31 28 -33 34 -20 45 11 9 24 10 52 2 34 -9 41 -8 70 14 18 14 42
25 53 25 11 0 24 7 29 15 12 23 -17 135 -35 135 -10 0 -12 6 -8 22 6 17 4 20
-9 15 -10 -4 -16 -1 -16 9 0 11 -6 14 -22 9 -22 -6 -22 -5 -4 9 10 9 16 22 13
31 -9 22 -22 19 -41 -9z"/>
<path d="M5786 3222 c-9 -29 3 -51 16 -28 5 10 5 23 0 33 -9 14 -10 14 -16 -5z"/>
<path d="M4243 2977 c-7 -15 -13 -38 -13 -50 0 -19 1 -20 16 -6 10 10 14 29
12 50 l-3 34 -12 -28z"/>
<path d="M4080 2970 c0 -5 9 -10 20 -10 11 0 20 5 20 10 0 6 -9 10 -20 10 -11
0 -20 -4 -20 -10z"/>
</g>
</svg>
